<svg width="150" height="38" viewBox="0 0 150 38" fill="none" xmlns="http://www.w3.org/2000/svg">
<path d="M35.5094 19.0137L33.6713 20.8466C33.5028 21.0151 33.2299 21.0143 33.0613 20.8458L32.7563 20.5396L31.5323 19.3139L31.2273 19.0073C31.0587 18.8384 31.0587 18.5638 31.2273 18.3957L31.5363 18.0899L32.7603 16.8678L33.0653 16.5624C33.2339 16.3943 33.5108 16.3947 33.6794 16.5632L35.5094 18.4017C35.678 18.5703 35.678 18.8456 35.5094 19.0137ZM30.0032 20.2294L30.3082 20.536L20.5038 30.3115L20.1988 30.0053C19.356 29.1601 17.9835 29.1581 17.1367 30.0009L16.8317 30.3063L7.05532 20.5019L7.36036 20.196C8.20716 19.3537 8.20716 17.9819 7.36839 17.1367L7.05936 16.8301L16.8638 7.05459L17.1728 7.3612C18.0116 8.20599 19.3841 8.208 20.2309 7.36522L20.5359 7.0602L30.3122 16.8646L30.0072 17.17C29.1604 18.0124 29.1604 19.3846 30.0032 20.2294ZM20.8048 33.6774L18.9667 35.5103C18.7982 35.6784 18.5212 35.678 18.3527 35.5095L16.5186 33.671C16.3541 33.5024 16.3541 33.2275 16.5226 33.0594L16.8276 32.7536L18.0517 31.5319L18.3607 31.2261C18.5293 31.0584 18.8022 31.0588 18.9707 31.2269L19.2757 31.5335L20.4998 32.7592L20.8048 33.0658C20.9734 33.2344 20.9734 33.5093 20.8048 33.6774ZM6.14031 18.9708L5.83531 19.2762L4.60723 20.4982L4.30224 20.8037C4.13368 20.9722 3.85677 20.9714 3.68821 20.8028L1.85814 18.9648C1.68958 18.795 1.68958 18.5209 1.85814 18.3523L3.69625 16.5195C3.86481 16.3513 4.13768 16.3513 4.30623 16.5207L4.61526 16.8269L5.83531 18.0522L6.14031 18.3588C6.30886 18.5277 6.30886 18.8022 6.14031 18.9708ZM16.5628 3.68866L18.4008 1.8558C18.5734 1.68764 18.8463 1.68724 19.0149 1.857L20.8489 3.69508C21.0175 3.86404 21.0175 4.13855 20.8449 4.30671L20.5399 4.61251L19.3159 5.83456L19.0069 6.14037C18.8383 6.30852 18.5654 6.30812 18.3968 6.13916L18.0918 5.83255L16.8678 4.6069L16.5628 4.30069C16.3942 4.13133 16.3942 3.85722 16.5628 3.68866ZM36.7375 17.1797L34.9034 15.3416C34.0606 14.4968 32.6881 14.4944 31.8453 15.3372L31.5363 15.6426L21.764 5.83817L22.069 5.53276C22.9118 4.68998 22.9158 3.31784 22.073 2.47305L20.2389 0.634964C19.4001 -0.209827 18.0276 -0.211838 17.1808 0.630146L15.3427 2.46341C14.4959 3.3058 14.4959 4.67834 15.3387 5.52273L15.6437 5.82894L5.83931 15.6053L5.53432 15.2986C4.69153 14.4543 3.319 14.4518 2.4722 15.2938L0.634092 17.1271C-0.208694 17.9695 -0.212692 19.342 0.630095 20.1864L2.46417 22.0249C3.30695 22.8697 4.6795 22.8717 5.52229 22.0293L5.83128 21.7239L15.6036 31.5279L15.2986 31.8337C14.4558 32.6765 14.4518 34.0482 15.2946 34.893L17.1286 36.7311C17.9714 37.5763 19.344 37.5787 20.1867 36.7359L22.0248 34.9031C22.8716 34.0607 22.8716 32.6885 22.0289 31.8437L21.7238 31.5371L31.5283 21.7616L31.8333 22.0678C32.676 22.913 34.0486 22.915 34.8954 22.0722L36.7334 20.2394C37.5762 19.397 37.5803 18.0249 36.7375 17.1797Z" fill="white"/>
<path d="M44.1376 8.19673C43.9932 7.8877 44.1858 7.57869 44.543 7.57869H46.967C47.1797 7.57869 47.3242 7.72116 47.3724 7.83995L51.9355 18.065H52.104L56.6671 7.83995C56.7152 7.72116 56.8597 7.57869 57.0724 7.57869H59.4964C59.8536 7.57869 60.0463 7.8877 59.9018 8.19673L52.5294 24.1996C52.4612 24.3421 52.3408 24.4613 52.1281 24.4613H51.8913C51.6746 24.4613 51.5582 24.3421 51.486 24.1996L44.1376 8.19673Z" fill="#0985FF"/>
<path d="M62.0649 8.03053C62.0649 7.79254 62.2817 7.57863 62.5184 7.57863H64.7298C64.9666 7.57863 65.1833 7.79254 65.1833 8.03053V23.7714C65.1833 24.0094 64.9666 24.2233 64.7298 24.2233H62.5184C62.2817 24.2233 62.0649 24.0094 62.0649 23.7714V8.03053Z" fill="#0985FF"/>
<path d="M75.2889 21.3225C78.3791 21.3225 80.6386 18.992 80.6386 15.8769C80.6386 12.7859 78.3791 10.4557 75.2889 10.4557H72.5759V21.3225H75.2889ZM69.5098 8.03053C69.5098 7.79254 69.6984 7.57863 69.9352 7.57863H75.5738C80.161 7.57863 83.9174 11.3114 83.9174 15.8769C83.9174 20.4905 80.161 24.2233 75.5738 24.2233H69.9352C69.6984 24.2233 69.5098 24.0094 69.5098 23.7714V8.03053Z" fill="#0985FF"/>
<path d="M94.0473 15.1637C95.3074 15.1637 96.4031 14.0697 96.4031 12.7385C96.4031 11.4779 95.3074 10.4321 94.0473 10.4321H90.1745V15.1637H94.0473ZM87.0562 8.03053C87.0562 7.79254 87.2488 7.57863 87.5096 7.57863H94.3121C97.1656 7.57863 99.4933 9.86098 99.4933 12.6907C99.4933 14.8784 98.0445 16.6619 95.9736 17.4942L99.2324 23.5342C99.397 23.8428 99.2324 24.2233 98.8271 24.2233H96.3308C96.1181 24.2233 95.9977 24.1045 95.9495 24.0094L92.7871 17.7081H90.1504V23.7714C90.1504 24.0094 89.9337 24.2233 89.6969 24.2233H87.5096C87.2488 24.2233 87.0562 24.0094 87.0562 23.7714V8.03053Z" fill="white"/>
<path d="M110.241 21.3703C113.239 21.3703 115.711 18.9206 115.711 15.9251C115.711 12.9288 113.239 10.4321 110.241 10.4321C107.247 10.4321 104.795 12.9288 104.795 15.9251C104.795 18.9206 107.247 21.3703 110.241 21.3703ZM110.241 7.3407C114.997 7.3407 118.801 11.169 118.801 15.9251C118.801 20.6804 114.997 24.4613 110.241 24.4613C105.485 24.4613 101.705 20.6804 101.705 15.9251C101.705 11.169 105.485 7.3407 110.241 7.3407Z" fill="white"/>
<path d="M119.636 8.19673C119.491 7.8877 119.68 7.57869 120.037 7.57869H122.465C122.678 7.57869 122.822 7.72116 122.866 7.83995L127.434 18.065H127.598L132.165 7.83995C132.213 7.72116 132.358 7.57869 132.57 7.57869H134.995C135.352 7.57869 135.54 7.8877 135.4 8.19673L128.028 24.1996C127.955 24.3421 127.839 24.4613 127.622 24.4613H127.385C127.173 24.4613 127.052 24.3421 126.98 24.1996L119.636 8.19673Z" fill="white"/>
<path d="M144.554 15.1637C145.814 15.1637 146.905 14.0697 146.905 12.7385C146.905 11.4779 145.814 10.4321 144.554 10.4321H140.677V15.1637H144.554ZM137.562 8.03053C137.562 7.79254 137.751 7.57863 138.016 7.57863H144.814C147.668 7.57863 150 9.86098 150 12.6907C150 14.8784 148.547 16.6619 146.48 17.4942L149.739 23.5342C149.903 23.8428 149.739 24.2233 149.333 24.2233H146.837C146.62 24.2233 146.504 24.1045 146.456 24.0094L143.293 17.7081H140.653V23.7714C140.653 24.0094 140.44 24.2233 140.203 24.2233H138.016C137.751 24.2233 137.562 24.0094 137.562 23.7714V8.03053Z" fill="white"/>
</svg>
